# xmcd
#
# Track frame offsets:
#	750
#	20220
#	39698
#	57222
#	73485
#	103862
#
# Disc length: 1392 seconds
#
# Revision: 3
# Processed by: cddbd v1.5.1PL0 Copyright (c) Steve Scherf et al.
# Submitted via: audiograbber 1.82.01
#
DISCID=5a056606
DTITLE=Ελένη Τσαλιγοπούλου - 5 ΤΡΑΓΟΥΔΙΑ ΓΙΑ ΤΟ ΚΑΛΟΚΑΙΡΙ
DYEAR=2002
DGENRE=ΕΛΛΗΝΙΚΑ
TTITLE0=Χίλιες σιωπές
TTITLE1=Δεν το αξίζεις
TTITLE2=Δε μας συγχωρώ
TTITLE3=Δείξε μου ποιός μ' αγαπάει
TTITLE4=Στα σύννεφα
TTITLE5=Data Track
EXTD=
EXTT0=
EXTT1=
EXTT2=
EXTT3=
EXTT4=
EXTT5=
PLAYORDER=
